<svg xmlns="http://www.w3.org/2000/svg" viewBox="0 0 501.47 350.9"><defs><style>.cls-1,.cls-2{fill:#fff;stroke:#fff;}.cls-1{stroke-miterlimit:10;}</style></defs><g id="Camada_2" data-name="Camada 2"><g id="Camada_1-2" data-name="Camada 1"><polygon class="cls-1" points="10.9 66.88 139.63 134.49 269.66 68.18 139.63 0.56 10.9 66.88"/><path class="cls-1" d="M122.08,143.6,64.22,208v55.91L.5,237.87.87,82Z"/><polygon class="cls-1" points="77.22 213.16 77.22 349.69 132.81 294.11 132.81 152.05 77.22 213.16"/><path class="cls-1" d="M279.11,137.63a35.23,35.23,0,0,1,3.33,4.72,65,65,0,0,1,7.71-7.67,63.69,63.69,0,0,1,28-13.65,74.66,74.66,0,0,1,17-1.8v-66l-67,28.88v46.36A38.59,38.59,0,0,1,279.11,137.63Z"/><path class="cls-1" d="M386.36,178.68C384.4,165,377.14,152,365.77,144c-12.68-9-29.4-11.48-44.4-8.05A48.76,48.76,0,0,0,286,165.66a65.29,65.29,0,0,0-1,44.76,49,49,0,0,0,26.83,29.31,58.93,58.93,0,0,0,42.39,1,48,48,0,0,0,27.1-24.55C387.08,204.69,388.05,191.3,386.36,178.68Zm-31.48,14.94c-.84,8.22-3.56,17.47-11.3,21.74-7.65,4.76-18.42,2.49-23.79-4.65-6-7.66-6.28-18-5.56-27.29.56-8.42,4.51-17.56,12.74-21a18.59,18.59,0,0,1,22.69,6.49C354.45,176.1,355.42,185.17,354.88,193.62Z"/><path class="cls-1" d="M417,136.92c-14.34.17-28.7-.35-43,.28,13.34,17.2,26.07,34.86,39.42,52-13.2,17.23-25.86,34.88-39.25,52,14.37.44,28.76,0,43.13.18q19.57-26,39.13-52.12C443.16,171.92,430.19,154.34,417,136.92Z"/><path class="cls-1" d="M497.09,137.2c-14.54-.6-29.15-.2-43.7-.21-4.27,5.45-8.32,11.06-12.66,16.45,7.32,9.63,14.48,19.37,21.85,28.95C473.94,167.24,485.52,152.2,497.09,137.2Z"/><path class="cls-1" d="M260.18,183.85c5.4-3.14,10.34-7.81,11.79-14.12,1.18-7.64.62-16.23-4.61-22.38-6.27-7.77-16.81-10-26.31-10.41-19.61,0-39.22-.08-58.84,0q0,52.2,0,104.39c20.12,0,40.23,0,60.35,0,11,.33,22.39-4.33,29.28-13.08,5.93-7.34,7.32-17.58,5.16-26.57A25,25,0,0,0,260.18,183.85Zm-45.7-22c8,.56,16.38-1.16,24.09,1.62,4.33,1.66,3.6,6.87,2.8,10.5-1.93,1.48-3.73,3.53-6.4,3.39a179,179,0,0,1-20.72-.06C214.51,172.16,214.28,167,214.48,161.85ZM238.66,216c-8,.81-16.16.17-24.24.41-.08-6.38,0-12.74-.07-19.13,7.06.07,14.14-.19,21.2.13,3.79.15,8.43,1.74,9.49,5.83C246.83,208.23,244.38,215.12,238.66,216Z"/><path class="cls-1" d="M441.05,225c3.14,5.74,8.21,10.72,11.88,16.33,14.68.08,29.36.3,44.05-.11q-17.55-22.21-34.37-45Q451.69,210.45,441.05,225Z"/><path class="cls-2" d="M214.16,284.21a17.08,17.08,0,0,1-4,5.85,19.14,19.14,0,0,1-6.18,3.88,21.47,21.47,0,0,1-7.9,1.41H182.37V258.64h13.69A21.89,21.89,0,0,1,204,260a18.77,18.77,0,0,1,6.18,3.86,17.15,17.15,0,0,1,4,5.82,19.34,19.34,0,0,1,0,14.5ZM207.89,272a12.16,12.16,0,0,0-2.58-4,11.67,11.67,0,0,0-4-2.64,14.07,14.07,0,0,0-5.26-.94h-7.26v25.06H196a14.27,14.27,0,0,0,5.26-.92,11.4,11.4,0,0,0,4-2.58,11.76,11.76,0,0,0,2.58-3.95,14.21,14.21,0,0,0,0-10.06Z"/><path class="cls-2" d="M256.69,264.47H235.92v9.44h18.41v5.82H235.92v9.8h21v5.82H229.52V258.64h27.17Z"/><path class="cls-2" d="M276.57,270.13a3.88,3.88,0,0,0,1.34,1.47,10.87,10.87,0,0,0,2.68,1.26c1.14.38,2.58.78,4.34,1.2a40.84,40.84,0,0,1,5.12,1.63,12.83,12.83,0,0,1,3.71,2.17,8.72,8.72,0,0,1,2.23,3,9.77,9.77,0,0,1,.77,4,10.84,10.84,0,0,1-1,4.66,9.7,9.7,0,0,1-2.68,3.46,11.63,11.63,0,0,1-4.12,2.16,18.43,18.43,0,0,1-5.29.73,23.2,23.2,0,0,1-8.13-1.44,22.28,22.28,0,0,1-7.19-4.43l3.88-4.62a22.59,22.59,0,0,0,5.41,3.54,14.86,14.86,0,0,0,6.18,1.23,8,8,0,0,0,4.75-1.26,4,4,0,0,0,1.76-3.4,4.61,4.61,0,0,0-.34-1.79,3.6,3.6,0,0,0-1.27-1.44,10.19,10.19,0,0,0-2.52-1.23,41.08,41.08,0,0,0-4.18-1.21,43.2,43.2,0,0,1-5.23-1.52,13.21,13.21,0,0,1-3.84-2.1,8.45,8.45,0,0,1-2.37-3,10.49,10.49,0,0,1-.81-4.35,10,10,0,0,1,.94-4.38,10.16,10.16,0,0,1,2.57-3.38,11.4,11.4,0,0,1,3.94-2.18,15.88,15.88,0,0,1,5-.76,20.94,20.94,0,0,1,7.26,1.18,21.8,21.8,0,0,1,6.06,3.43l-3.46,4.88a22.44,22.44,0,0,0-5-2.8,13.49,13.49,0,0,0-5-1,6.78,6.78,0,0,0-4.41,1.28,3.9,3.9,0,0,0-1.57,3.12A4.37,4.37,0,0,0,276.57,270.13Z"/><path class="cls-2" d="M317.26,258.64v36.71h-6.4V258.64Z"/><path class="cls-2" d="M363,292.47a23.52,23.52,0,0,1-3.57,1.84,23.28,23.28,0,0,1-4.12,1.23,23,23,0,0,1-4.61.44,20.47,20.47,0,0,1-7.82-1.44,17.44,17.44,0,0,1-9.86-10,20.28,20.28,0,0,1-1.36-7.5,19.44,19.44,0,0,1,1.39-7.34,18.35,18.35,0,0,1,9.91-10.17,18.81,18.81,0,0,1,7.63-1.53,25.41,25.41,0,0,1,4.38.35,19.67,19.67,0,0,1,3.65,1,18.58,18.58,0,0,1,3.17,1.54,22.06,22.06,0,0,1,2.91,2.13l-4.09,4.87a24.69,24.69,0,0,0-2.15-1.62,12.8,12.8,0,0,0-2.31-1.23,13.48,13.48,0,0,0-2.65-.79,16.37,16.37,0,0,0-3.17-.29,10.76,10.76,0,0,0-4.69,1,11.75,11.75,0,0,0-3.78,2.81,13.49,13.49,0,0,0-2.52,4.15,13.87,13.87,0,0,0-.91,5,14.93,14.93,0,0,0,.89,5.26,12.22,12.22,0,0,0,2.54,4.18,11.77,11.77,0,0,0,3.93,2.75,12.61,12.61,0,0,0,5.12,1,15.29,15.29,0,0,0,4.9-.76,13.94,13.94,0,0,0,4-2v-6.91h-9.39v-5.61H366v15.42A27.49,27.49,0,0,1,363,292.47Z"/><path class="cls-2" d="M406.1,258.64h6.4v36.71h-5.39l-20.2-26.11v26.11h-6.4V258.64h6L406.1,284Z"/><path class="cls-2" d="M455.24,264.47H434.47v9.44h18.41v5.82H434.47v9.8h21v5.82H428.08V258.64h27.16Z"/><path class="cls-2" d="M492.9,295.35l-9-12.79h-8.1v12.79h-6.4V258.64h16.36a18.66,18.66,0,0,1,5.69.82,12.36,12.36,0,0,1,4.3,2.3,10,10,0,0,1,2.7,3.68,12,12,0,0,1,1,4.85,11.89,11.89,0,0,1-.66,4.11,10.55,10.55,0,0,1-1.81,3.2,10.78,10.78,0,0,1-2.75,2.36,13.67,13.67,0,0,1-3.54,1.5l9.91,13.89ZM490.79,266a9,9,0,0,0-5.63-1.55h-9.41v12.37h9.47a8.46,8.46,0,0,0,5.52-1.68,5.57,5.57,0,0,0,2.05-4.53A5.48,5.48,0,0,0,490.79,266Z"/></g></g></svg>