<svg width="93" height="100" viewBox="0 0 93 100" fill="none" xmlns="http://www.w3.org/2000/svg">
<g clip-path="url(#clip0_0_104)">
<path d="M29.6747 56.6951C27.2077 56.6951 25.2032 54.6964 25.0491 52.0315C30.9082 49.3666 34.4546 43.0375 34.3004 36.2087C34.3004 35.8756 34.3004 35.2094 34.3004 35.0428C34.3004 26.715 28.1328 20.0527 20.4234 20.0527H1.92069C0.995556 20.0527 0.378799 20.719 0.378799 21.7183C0.378799 25.5491 1.7665 29.2133 4.07934 31.8782C3.77096 33.5438 3.46258 35.0428 3.46258 36.7084C3.46258 43.3706 7.16312 49.3666 12.7139 52.0315C12.5597 54.6964 10.5553 56.6951 8.08825 56.6951C3.77096 56.6951 0.378799 60.3594 0.378799 65.0229V98.3342C0.378799 99.3335 0.995556 99.9998 1.92069 99.9998H35.8423C36.7674 99.9998 37.3842 99.3335 37.3842 98.3342V65.0229C37.3842 60.3594 33.992 56.6951 29.6747 56.6951ZM3.61677 23.3839H20.4234C25.82 23.3839 30.2915 27.7143 31.0624 33.3772H14.2558C8.8592 33.3772 4.38772 29.0468 3.61677 23.3839ZM6.54636 36.7084C6.54636 35.8756 6.54636 35.0428 6.70055 34.3766C9.01339 35.8756 11.6346 36.7084 14.2558 36.7084H31.2166C31.2166 42.3713 27.9786 47.368 23.0446 49.2001C22.4278 49.3666 21.9653 50.0329 21.9653 50.6991V51.6984C21.9653 53.8637 22.7362 56.0289 24.2781 57.6945L20.2692 58.3607H17.4938L13.4849 57.6945C15.0268 56.1955 15.7977 54.0302 15.7977 51.6984V50.8657C15.7977 50.1994 15.3351 49.5332 14.7184 49.3666C9.78433 47.368 6.54636 42.3713 6.54636 36.7084ZM21.9653 81.1789L18.8815 84.3435L15.9519 81.1789L18.7273 61.6918H19.1899L21.9653 81.1789ZM3.46258 65.0229C3.46258 62.358 5.46704 60.0263 7.93406 60.0263L15.4893 61.3587L12.5597 81.3455C12.5597 81.8451 12.7139 82.3448 13.0223 82.8445L17.648 87.8412C18.2647 88.5074 19.1899 88.5074 19.8066 87.8412L24.4323 82.8445C24.7407 82.5114 24.8949 82.0117 24.8949 81.3455L21.9653 61.3587L29.5205 60.0263C31.9876 60.0263 33.992 62.358 33.992 65.0229V90.0064H3.46258V65.0229ZM34.3004 96.6686H3.46258V93.3375H34.3004V96.6686Z" fill="#F09F0C"/>
<path d="M86.7247 13.3906H79.7862L78.0901 10.5592C77.3191 9.22671 75.7772 8.39393 74.2354 8.39393H70.8432C70.0722 8.39393 69.4555 7.89426 69.3013 7.06148C67.7594 1.73168 62.6712 -1.09978 57.7371 0.399228C54.8075 1.39857 52.4947 3.89691 51.5696 7.06148C51.4154 7.72771 50.7986 8.39393 50.0277 8.39393H46.6355C45.0936 8.39393 43.7059 9.22671 42.7808 10.5592L41.2389 13.3906H34.3004C30.9082 13.3906 28.1328 16.3886 28.1328 20.0529H31.2166C31.2166 18.2208 32.6043 16.7218 34.3004 16.7218H39.2344C38.3093 18.2208 38.926 20.386 40.3137 21.2188C40.7763 21.5519 41.3931 21.7184 41.8556 21.7184H79.3236C81.0197 21.7184 82.4074 20.2194 82.4074 18.3873C82.4074 17.7211 82.2532 17.2214 81.9448 16.7218H86.7247C88.4207 16.7218 89.8084 18.2208 89.8084 20.0529V93.3377C89.8084 95.1698 88.4207 96.6688 86.7247 96.6688H40.4679V99.9999H86.7247C90.1168 99.9999 92.8922 97.0019 92.8922 93.3377V20.0529C92.8922 16.3886 90.1168 13.3906 86.7247 13.3906ZM41.8556 18.3873L45.402 12.3913C45.7104 12.0582 46.1729 11.7251 46.7897 11.7251H50.1819C52.1863 11.7251 54.0366 10.2261 54.6533 8.06082C55.7327 4.56314 59.1248 2.56446 62.3628 3.73035C64.3672 4.39658 65.7549 6.06214 66.3717 8.06082C66.9885 10.2261 68.8387 11.7251 70.8432 11.7251H74.2354C74.6979 11.7251 75.1605 12.0582 75.4689 12.3913L79.1694 18.3873H41.8556Z" fill="#F09F0C"/>
<path d="M62.0544 6.72852H58.9706V10.0596H62.0544V6.72852Z" fill="#F09F0C"/>
<path d="M53.8824 41.2058L51.7237 38.874L48.1774 42.7048L44.6311 38.874L42.4724 41.2058L46.0188 45.0366L42.4724 48.8674L44.6311 51.1992L48.1774 47.3684L51.7237 51.1992L53.8824 48.8674L50.336 45.0366L53.8824 41.2058Z" fill="#F09F0C"/>
<path d="M70.8432 74.5168L68.6846 72.1851L65.1382 76.0159L61.5919 72.1851L59.4332 74.5168L62.9796 78.3476L59.4332 82.1784L61.5919 84.5102L65.1382 80.6794L68.6846 84.5102L70.8432 82.1784L67.2969 78.3476L70.8432 74.5168Z" fill="#F09F0C"/>
<path d="M72.3851 47.2018C71.7683 46.5356 70.8432 46.5356 70.2264 47.2018L64.0589 53.8641L66.2175 56.1959L69.7639 52.3651V55.8627C69.7639 60.0267 66.6801 63.3578 62.8254 63.3578C57.2745 63.3578 52.8031 68.1879 52.8031 74.1839V75.8495C52.8031 80.0134 49.7193 83.3446 45.8646 83.3446H42.0098V86.6757H45.8646C51.4154 86.6757 55.8868 81.8455 55.8868 75.8495V74.1839C55.8868 70.02 58.9706 66.6889 62.8254 66.6889C68.3762 66.6889 72.8476 61.8588 72.8476 55.8627V52.3651L76.394 56.1959L78.5526 53.8641L72.3851 47.2018Z" fill="#F09F0C"/>
<path d="M81.6364 28.0477L79.4778 25.5494L77.4733 27.7146C73.7728 24.0504 67.9136 24.3835 64.5214 28.5474C61.1293 32.7113 61.4376 38.8739 65.2924 42.5382C69.1471 46.2024 74.8521 45.8693 78.2442 41.7054C80.8655 38.5408 81.328 34.0438 79.4778 30.3795L81.6364 28.0477ZM71.3057 41.7054C67.9136 41.7054 65.1382 38.7074 65.1382 35.0431C65.1382 31.3789 67.9136 28.3809 71.3057 28.3809C72.8476 28.3809 74.2353 29.0471 75.3147 30.0464L71.3057 34.3769L69.3013 32.2117L67.1426 34.5434L70.2264 37.8746C70.8432 38.5408 71.7683 38.5408 72.3851 37.8746L77.0107 32.8779C77.3191 33.5441 77.4733 34.2103 77.4733 35.0431C77.4733 38.7074 74.6979 41.7054 71.3057 41.7054Z" fill="#F09F0C"/>
<path d="M29.6747 68.3545H25.049V71.6856H29.6747V68.3545Z" fill="#F09F0C"/>
<path d="M83.6409 21.7188V90.0068H40.468V93.338H85.1828C86.1079 93.338 86.7247 92.6717 86.7247 91.6724V21.7188H83.6409Z" fill="#F09F0C"/>
</g>
<defs>
<clipPath id="clip0_0_104">
<rect width="92.5747" height="100" fill="white" transform="translate(0.348145)"/>
</clipPath>
</defs>
</svg>
