<svg width="94" height="100" viewBox="0 0 94 100" fill="none" xmlns="http://www.w3.org/2000/svg">
<g clip-path="url(#clip0_0_73)">
<path d="M91.898 26.2593C91.8979 26.2593 91.8979 26.2593 91.8977 26.2593L91.8946 26.2559L85.9192 25.335C85.0793 25.2058 84.4954 24.3656 84.615 23.4584C84.6724 23.0224 84.8881 22.6291 85.2141 22.3649L90.0436 18.4522C90.7224 17.9024 90.8598 16.8624 90.3508 16.1292L84.8209 8.16456C84.3118 7.43135 83.3491 7.28285 82.6703 7.8327L77.8424 11.7453C77.1665 12.2993 76.203 12.1566 75.6901 11.4265C75.4411 11.0721 75.3343 10.6243 75.3939 10.1839L76.2479 3.72924C76.3683 2.82202 75.7852 1.98137 74.9455 1.85112C74.9449 1.85112 74.9444 1.85091 74.9438 1.85091L65.8255 0.443819C64.9858 0.313563 64.2072 0.943269 64.0867 1.85049C64.0867 1.8507 64.0867 1.8507 64.0867 1.85091L63.2326 8.3056C63.113 9.21282 62.3351 9.84357 61.4953 9.71435C61.0917 9.65233 60.7276 9.41941 60.483 9.06722L56.8624 3.85037C56.3534 3.11716 55.3906 2.96866 54.7119 3.51851L50.0959 7.26024C48.0076 7.02047 45.9016 7.02047 43.8133 7.26024C30.137 8.94879 19.4122 20.7303 18.0791 35.5298C18.0376 35.9994 18.0222 36.4656 18.0007 36.9319H17.5399C16.811 36.9334 16.1833 37.488 16.0376 38.2594L14.9761 43.7118L10.7242 40.5442C10.114 40.0894 9.2899 40.1705 8.76571 40.7367L4.15742 45.7146C3.634 46.2806 3.55911 47.1696 3.97924 47.8286L6.89782 52.4132L1.84867 53.5598C1.14245 53.727 0.639764 54.4033 0.6413 55.1843V61.8215C0.640916 62.6063 1.14994 63.2841 1.86096 63.4459L6.91011 64.5925L3.99152 69.1772C3.5714 69.8361 3.64629 70.7251 4.16971 71.2911L8.778 76.269C9.30219 76.8353 10.1263 76.9164 10.7365 76.4615L14.9808 73.3005L16.0422 78.7547C16.1879 79.526 16.8156 80.0807 17.5445 80.0821H23.6889C24.4154 80.0825 25.0429 79.5327 25.1927 78.7646L26.2542 73.3105L30.4984 76.4632C31.1084 76.917 31.9314 76.8361 32.4554 76.2707L34.8409 73.6855V78.4145C34.8478 80.7751 36.0185 82.9527 37.9131 84.1292V93.3482C37.9131 97.0139 40.6641 99.9855 44.0575 99.9855H50.2019C53.5953 99.9855 56.3463 97.0139 56.3463 93.3482V84.1292C58.2409 82.9527 59.4115 80.7751 59.4185 78.4145V71.847C59.4601 69.0836 60.7985 66.5324 62.9714 65.0737C64.2462 64.1804 65.4551 63.1817 66.5874 62.087L64.5383 59.6146C63.5254 60.5952 62.4432 61.489 61.3017 62.2877C58.2516 64.3556 56.3845 67.9572 56.3463 71.847V78.4145C56.3463 80.2474 54.9709 81.7331 53.2741 81.7331H40.9853C39.2885 81.7331 37.9131 80.2474 37.9131 78.4145V71.7093C37.8776 67.8931 36.0399 64.361 33.0406 62.3442C20.8657 54.0804 17.1975 36.7201 24.8477 23.5687C29.5942 15.4089 37.878 10.4424 46.7994 10.4079C46.7766 10.4671 46.7564 10.5274 46.7395 10.5888C46.6825 11.0244 46.7881 11.4668 47.0329 11.8183L50.6535 17.0335C51.0352 17.5672 51.0719 18.3002 50.7457 18.8754C50.4315 19.454 49.8242 19.7697 49.2096 19.6735L43.2342 18.7509C42.3943 18.6209 41.6161 19.2508 41.4955 20.1578C41.4955 20.1584 41.4953 20.159 41.4953 20.1597L40.1912 30.0143C40.0708 30.9213 40.6539 31.7621 41.4936 31.8924C41.4941 31.8924 41.4947 31.8926 41.4953 31.8926L47.4707 32.8152C48.3106 32.9444 48.8945 33.7846 48.7748 34.6919C48.7174 35.1278 48.5018 35.5211 48.1758 35.7853L43.3478 39.6963C42.6691 40.2462 42.5316 41.2861 43.0406 42.0193L48.5705 49.984C49.0796 50.7172 50.0423 50.8657 50.7211 50.3159L55.5506 46.4049C56.2299 45.8561 57.1927 46.006 57.7007 46.7401C57.9438 47.0912 58.0485 47.5322 57.9914 47.9663L57.1389 54.421C57.0183 55.328 57.6013 56.1691 58.4411 56.2993C58.4413 56.2993 58.4413 56.2993 58.4415 56.2993L67.5659 57.7081C67.6377 57.718 67.7101 57.723 67.7825 57.723C68.5473 57.724 69.1961 57.1171 69.3048 56.2993L70.1573 49.8446C70.2769 48.9374 71.0548 48.3066 71.8946 48.4359C72.2982 48.4979 72.6623 48.7308 72.9069 49.083L76.529 54.2982C77.0381 55.0314 78.0008 55.1799 78.6796 54.63L86.0528 48.6566C86.7316 48.1067 86.8691 47.0667 86.36 46.3335L82.7395 41.1183C82.3595 40.5838 82.3228 39.8521 82.6473 39.2765C82.9547 38.6902 83.5676 38.3724 84.1834 38.48L90.1588 39.401C90.9985 39.5312 91.7771 38.9013 91.8977 37.9943C91.8977 37.9941 91.8977 37.9941 91.8977 37.9939L93.2003 28.1376C93.3209 27.2304 92.7379 26.3895 91.898 26.2593ZM40.9853 85.0517H53.2741V88.3703H40.9853V85.0517ZM40.9853 91.6889H53.2741V93.3482C53.2741 95.1812 51.8987 96.6669 50.2019 96.6669H44.0575C42.3607 96.6669 40.9853 95.1812 40.9853 93.3482V91.6889ZM28.7565 63.0742C29.5952 63.8151 30.4715 64.505 31.3816 65.1401C32.8331 66.1309 33.9256 67.6299 34.4769 69.3862L31.1819 72.9388L27.9915 70.5627C26.5944 69.5227 24.6814 69.9031 23.7184 71.4123C23.4876 71.7742 23.3256 72.182 23.2419 72.6119L22.437 76.7552H18.7857L17.9807 72.6186C17.6313 70.8251 16.0021 69.677 14.3417 70.0545C13.9437 70.145 13.5662 70.32 13.2311 70.5693L10.0391 72.9388L7.24037 69.9222L9.43852 66.4775C10.4022 64.969 10.0512 62.9023 8.65473 61.8613C8.31947 61.6114 7.94159 61.4359 7.54298 61.3453L3.71349 60.4741V56.5316L7.54298 55.6605C9.20273 55.2803 10.263 53.5187 9.91106 51.7256C9.82754 51.3002 9.66759 50.8968 9.44005 50.5382L7.24037 47.0835L10.0391 44.0669L13.2327 46.443C14.6303 47.482 16.5433 47.1003 17.5051 45.5906C17.7355 45.229 17.8972 44.8217 17.9807 44.3921L18.2496 43.0116C18.4957 44.9235 18.9034 46.8068 19.4677 48.6383C14.4134 49.2892 10.8045 54.243 11.407 59.7027C12.0096 65.1625 16.5956 69.0608 21.6499 68.41C24.6925 68.0179 27.3559 66.0183 28.7565 63.0742ZM26.3709 60.7363C25.2238 64.1804 21.7094 65.9679 18.5211 64.729C15.3327 63.4899 13.6779 59.6936 14.8248 56.2495C15.7023 53.6148 18.0182 51.8598 20.6103 51.8656C20.6303 51.8656 20.6488 51.8656 20.6687 51.8656C22.0814 55.1558 24.0105 58.1569 26.3709 60.7363ZM89.0651 35.8766L84.6104 35.1896C82.0909 34.8009 79.7568 36.6923 79.3969 39.4138C79.2241 40.7207 79.539 42.0484 80.2725 43.1045L82.9714 46.9923L78.0559 50.9746L75.3555 47.0885C73.8286 44.8889 70.9401 44.4428 68.904 46.0921C67.9263 46.884 67.2798 48.0631 67.1066 49.3701L66.4845 54.1887L60.4031 53.2495L61.039 48.4375C61.3998 45.7161 59.6498 43.1939 57.1304 42.8044C55.9198 42.6171 54.6902 42.9573 53.7119 43.75L50.1128 46.6654L46.4262 41.3556L50.0237 38.4386C52.06 36.7892 52.473 33.6691 50.9461 31.4697C50.213 30.4135 49.1214 29.7152 47.9116 29.5281L43.4569 28.8411L44.3263 22.272L48.781 22.9589C51.3004 23.3486 53.6353 21.4583 53.9959 18.7368C54.1692 17.4291 53.8543 16.1008 53.1205 15.044L50.4123 11.153L55.3278 7.17064L58.0283 11.0584C59.5552 13.258 62.4436 13.7041 64.4797 12.0548C65.4574 11.2629 66.1039 10.0838 66.2771 8.77684L66.9131 3.96486L72.9945 4.90237L72.3585 9.71435C71.9987 12.436 73.7495 14.9573 76.269 15.346C77.4789 15.5327 78.708 15.1925 79.6857 14.4002L83.2848 11.4848L86.9714 16.7946L83.3723 19.7117C81.3361 21.361 80.923 24.4811 82.4499 26.6805C83.183 27.7367 84.2746 28.435 85.4845 28.6221L89.9391 29.3091L89.0651 35.8766Z" fill="#F09F0C"/>
<path d="M66.6934 15.7988C59.9066 15.7988 54.4047 21.742 54.4047 29.0733C54.4047 36.4045 59.9066 42.3477 66.6934 42.3477C73.4803 42.3477 78.9822 36.4045 78.9822 29.0733C78.9745 21.7454 73.4772 15.8069 66.6934 15.7988ZM66.6934 39.0291C61.6032 39.0291 57.4769 34.5718 57.4769 29.0733C57.4769 23.5747 61.6032 19.1174 66.6934 19.1174C71.7837 19.1174 75.91 23.5747 75.91 29.0733C75.9041 34.5691 71.7812 39.0227 66.6934 39.0291Z" fill="#F09F0C"/>
<path d="M48.6658 73.4365H45.5936V78.4144H48.6658V73.4365Z" fill="#F09F0C"/>
<path d="M40.4108 57.1405C30.9283 53.1391 26.2442 41.5916 29.9486 31.3485C31.3841 27.3795 33.9604 24.0125 37.2987 21.7426L35.6566 18.9351C25.6074 25.7737 22.593 40.1173 28.9239 50.9725C31.3757 55.1765 35.0109 58.4207 39.2956 60.2285C43.0882 61.7982 45.5926 65.7307 45.5936 70.1179H48.6658C48.6706 64.3618 45.3868 59.1995 40.4108 57.1405Z" fill="#F09F0C"/>
<path d="M87.0682 61.8213H76.3155V65.1399H87.0682V61.8213Z" fill="#F09F0C"/>
<path d="M75.763 70.5011L73.7964 73.0508L83.0137 81.3459L84.9802 78.7963L75.763 70.5011Z" fill="#F09F0C"/>
<path d="M70.1711 75.0957H67.0989V86.7108H70.1711V75.0957Z" fill="#F09F0C"/>
<path d="M14.4978 25.3651L2.20984 28.6831L2.95447 31.9009L15.2424 28.5828L14.4978 25.3651Z" fill="#F09F0C"/>
<path d="M6.5462 9.03489L4.76154 11.7339L15.5134 20.0295L17.298 17.3305L6.5462 9.03489Z" fill="#F09F0C"/>
<path d="M20.8993 0.0134307L17.9229 0.835449L21.0647 14.1088L24.041 13.2868L20.8993 0.0134307Z" fill="#F09F0C"/>
</g>
<defs>
<clipPath id="clip0_0_73">
<rect width="92.5747" height="100" fill="white" transform="translate(0.641296)"/>
</clipPath>
</defs>
</svg>
