<svg width="93" height="100" viewBox="0 0 93 100" fill="none" xmlns="http://www.w3.org/2000/svg">
<path d="M91.38 68.5367C91.3794 68.5367 91.3788 68.5365 91.3782 68.5365V68.5315L85.4042 67.6106C84.5641 67.4824 83.9794 66.6427 84.0981 65.7355C84.1553 65.298 84.3717 64.9033 84.6991 64.6387L86.6577 63.0556H90.7561C91.6044 63.0556 92.2922 62.3126 92.2922 61.3963V1.65936C92.2922 0.742978 91.6044 0 90.7561 0H1.65959C0.811255 0 0.123445 0.742978 0.123445 1.65936V61.3963C0.123445 62.3126 0.811255 63.0556 1.65959 63.0556H5.63207L3.64583 65.2012C3.12239 65.7672 3.0475 66.6562 3.46764 67.3152L6.38632 71.9017L1.337 73.0466C0.628261 73.2111 0.122485 73.8881 0.123445 74.6711V81.3086C0.123061 82.0935 0.632102 82.7713 1.34315 82.9331L6.39246 84.0797L3.47378 88.6645C3.05364 89.3235 3.12853 90.2125 3.65197 90.7785L8.26041 95.7566C8.78443 96.322 9.60742 96.4029 10.2175 95.9491L14.4618 92.7963L15.5233 98.2506C15.675 99.0137 16.2985 99.5594 17.0211 99.5615H23.1656C23.8922 99.5619 24.5198 99.0121 24.6695 98.244L25.731 92.788L29.9754 95.9491C30.5854 96.4029 31.4084 96.322 31.9324 95.7566L36.5409 90.7785C37.0643 90.2125 37.1392 89.3235 36.7191 88.6645L33.8004 84.078L38.8497 82.9331C39.5584 82.7686 40.0642 82.0916 40.0633 81.3086V74.6711C40.0636 73.8863 39.5546 73.2084 38.8436 73.0466L33.7942 71.9L36.7129 67.3152C37.1331 66.6562 37.0582 65.7672 36.5347 65.2012L34.5546 63.0556H40.8943L39.6654 72.29C39.5437 73.1968 40.1255 74.0387 40.965 74.1704C40.9715 74.1715 40.9782 74.1725 40.9848 74.1733L46.9588 75.0943C47.7989 75.2225 48.3836 76.0621 48.2649 76.9693C48.2077 77.4068 47.9913 77.8015 47.6639 78.0662L42.8283 81.9723C42.1495 82.5222 42.0121 83.5622 42.5211 84.2954L48.0512 92.2603C48.5603 92.9936 49.523 93.1421 50.2018 92.5922L55.0299 88.6794C55.7085 88.1294 56.6715 88.2779 57.1805 89.0109C57.4254 89.3633 57.5304 89.8064 57.4724 90.2426L56.6183 96.6958C56.4979 97.6031 57.0811 98.4437 57.9208 98.574C57.9213 98.574 57.9219 98.5742 57.9225 98.5742L67.0457 99.9813C67.1179 99.9932 67.1908 99.9994 67.2638 99.9996C68.0284 99.9996 68.6767 99.3921 68.7846 98.5742L69.6387 92.1209C69.7583 91.2137 70.5362 90.5829 71.3761 90.7122C71.7797 90.7742 72.1438 91.0071 72.3884 91.3593L76.0091 96.5747C76.5181 97.3079 77.4809 97.4564 78.1597 96.9065L85.5332 90.9329C86.212 90.383 86.3495 89.343 85.8404 88.6097L82.2182 83.3944C81.709 82.6614 81.8464 81.6212 82.525 81.0713C82.8513 80.8068 83.2616 80.6934 83.6652 80.756L89.6393 81.6769C90.479 81.8072 91.2576 81.1773 91.3782 80.2702C91.3782 80.27 91.3782 80.27 91.3782 80.2698L92.6824 70.4149C92.8028 69.5078 92.2197 68.667 91.38 68.5367ZM36.991 76.0185V79.9612L33.1614 80.8307C31.5008 81.2076 30.4376 82.9671 30.7865 84.7609C30.8704 85.1919 31.0326 85.6005 31.2642 85.9631L33.4578 89.4096L30.6651 92.4263L27.4745 90.0501C26.0774 89.0101 24.1643 89.3905 23.2014 90.8997C22.9706 91.2616 22.8085 91.6694 22.7248 92.0994L21.9183 96.2428H18.2684L17.4619 92.1077C17.1107 90.3145 15.4803 89.1683 13.8203 89.5477C13.4261 89.6377 13.0522 89.8107 12.7198 90.0567L9.52159 92.4263L6.72888 89.4096L8.92864 85.9631C9.89219 84.4543 9.54118 82.3876 8.14443 81.3467C7.80879 81.0966 7.43051 80.9211 7.0315 80.8307L3.19574 79.9612V76.0185L7.02535 75.149C8.68535 74.7695 9.74606 73.008 9.39467 71.2149C9.31114 70.7887 9.15061 70.3842 8.92249 70.0249L6.72888 66.5702L9.52159 63.5534L12.7198 65.923C14.117 66.963 16.0302 66.5826 16.993 65.0734C17.2238 64.7115 17.3859 64.3037 17.4696 63.8737L18.2684 59.7369H21.9183L22.7248 63.872C23.0735 65.6658 24.7022 66.8147 26.3627 66.438C26.7612 66.3476 27.1391 66.1725 27.4745 65.923L30.6651 63.5534L33.4578 66.5702L31.2642 70.0249C30.3007 71.5337 30.6517 73.6004 32.0484 74.6413C32.3841 74.8914 32.7623 75.0669 33.1614 75.1573L36.991 76.0185ZM26.6481 62.5064L25.7264 63.19L24.6649 57.7357C24.5155 56.9693 23.8905 56.4203 23.1656 56.4182H20.0934V44.8027H26.2379V61.3963C26.2404 61.8088 26.3869 62.2052 26.6481 62.5064ZM33.9187 34.8465C33.0703 34.8465 32.3825 35.5895 32.3825 36.5059V59.7369H29.3102V43.1433C29.3102 42.2269 28.6224 41.484 27.7741 41.484H18.5572C17.7089 41.484 17.0211 42.2269 17.0211 43.1433V56.4182C16.2945 56.4178 15.6669 56.9676 15.5172 57.7357L14.4557 63.1917L10.2113 60.0306C9.95421 59.8441 9.65005 59.7481 9.34033 59.7552V59.7369H3.19574V3.31872H89.2199V57.525L84.3043 50.4445C83.7952 49.7113 82.8325 49.5628 82.1537 50.1126L77.3256 54.0254C76.647 54.5755 75.684 54.427 75.175 53.6939C74.9301 53.3415 74.8251 52.8985 74.8831 52.4623L75.7372 46.009C75.7958 45.5494 75.6713 45.0846 75.3946 44.7297V14.9342C75.3946 14.0178 74.7068 13.2749 73.8585 13.2749H64.6416C63.7933 13.2749 63.1055 14.0178 63.1055 14.9342V47.6468L62.7168 50.5839C62.6041 51.4847 61.8366 52.1165 61.0027 51.9948C60.6234 51.9394 60.2774 51.732 60.0332 51.4136V23.231C60.0332 22.3146 59.3454 21.5717 58.497 21.5717H49.2801C48.4318 21.5717 47.744 22.3146 47.744 23.231V51.0253L46.8223 51.772C46.1435 52.3219 46.006 53.3619 46.5151 54.0951L50.1373 59.3105C50.6465 60.0435 50.5091 61.0837 49.8305 61.6336C49.5042 61.898 49.0939 62.0115 48.6903 61.9488L44.6717 61.3299V36.5059C44.6717 35.5895 43.9839 34.8465 43.1356 34.8465H33.9187ZM72.3223 16.5936V43.8071L66.1777 42.8579V16.5936H72.3223ZM56.9609 24.8904V47.0163L56.3464 46.1302C55.8374 45.3969 54.8746 45.2484 54.1958 45.7983L50.8163 48.5362V24.8904H56.9609ZM41.5994 59.7369H35.4548V38.1652H41.5994V59.7369ZM88.5533 78.1558L84.0984 77.4688C81.5788 77.0801 79.2446 78.9714 78.8848 81.6931C78.7119 83.0001 79.0268 84.3278 79.7604 85.3839L82.4609 89.2735L77.5452 93.256L74.8462 89.3681C73.3203 87.1676 70.4319 86.7202 68.395 88.3683C67.4157 89.1607 66.7684 90.3413 66.5956 91.6497L65.9596 96.4618L59.8796 95.5226L60.5155 90.7105C60.8746 87.9887 59.123 85.4678 56.6033 85.0799C55.3946 84.8938 54.1668 85.2336 53.1896 86.0245L49.5874 88.9416L45.9006 83.6317L49.4983 80.7162C51.5346 79.0668 51.9477 75.9466 50.4207 73.7471C49.6876 72.6909 48.596 71.9925 47.3861 71.8054L42.9312 71.1168L43.8007 64.5474L48.2555 65.2344C50.7752 65.6231 53.1094 63.7318 53.4692 61.0101C53.642 59.7031 53.3271 58.3754 52.5936 57.3192L49.8946 53.4314L54.8103 49.4489L57.5093 53.3368C59.0352 55.5373 61.9236 55.9847 63.9605 54.3365C64.9398 53.5442 65.5871 52.3635 65.7599 51.0551L66.3959 46.243L72.4775 47.1822L71.8415 51.9943C71.4824 54.7161 73.234 57.2371 75.7537 57.625C76.9625 57.811 78.1902 57.4713 79.1674 56.6804L82.7681 53.7632L86.4549 59.0732L82.8572 61.9887C80.8209 63.6381 80.4078 66.7583 81.9348 68.9578C82.6679 70.0139 83.7595 70.7123 84.9694 70.8994L89.4243 71.588L88.5533 78.1558Z" fill="#F09F0C"/>
<path d="M20.0934 68.0327C15.003 68.0327 10.8765 72.4902 10.8765 77.9889C10.8765 83.4876 15.003 87.945 20.0934 87.945C25.1838 87.945 29.3103 83.4876 29.3103 77.9889C29.3053 72.4924 25.1817 68.0381 20.0934 68.0327ZM20.0934 84.6263C16.6998 84.6263 13.9488 81.6546 13.9488 77.9889C13.9488 74.3231 16.6998 71.3514 20.0934 71.3514C23.4869 71.3514 26.238 74.3231 26.238 77.9889C26.238 81.6546 23.4869 84.6263 20.0934 84.6263Z" fill="#F09F0C"/>
<path d="M66.1778 58.0767C59.3907 58.0767 53.8886 64.0201 53.8886 71.3515C53.8886 78.683 59.3907 84.6264 66.1778 84.6264C72.9648 84.6264 78.4669 78.683 78.4669 71.3515C78.4593 64.0234 72.9618 58.085 66.1778 58.0767ZM66.1778 81.3077C61.0874 81.3077 56.9609 76.8502 56.9609 71.3515C56.9609 65.8528 61.0874 61.3954 66.1778 61.3954C71.2682 61.3954 75.3946 65.8528 75.3946 71.3515C75.3897 76.8479 71.2661 81.3023 66.1778 81.3077Z" fill="#F09F0C"/>
<path d="M61.8766 6.6701L54.1958 5.01074L53.5814 8.26308L57.305 9.06953L16.2438 35.0733L17.7984 37.9374L59.3911 11.6001L58.5278 16.2612L61.5386 16.9117L63.0748 8.61487C63.237 7.7213 62.7022 6.85346 61.8766 6.6701Z" fill="#F09F0C"/>
<path d="M9.34033 44.8018H6.26804V56.4173H9.34033V44.8018Z" fill="#F09F0C"/>
<path d="M9.34033 38.1646H6.26804V41.4833H9.34033V38.1646Z" fill="#F09F0C"/>
<path d="M86.1476 21.5708H83.0753V46.4612H86.1476V21.5708Z" fill="#F09F0C"/>
<path d="M86.1476 14.9336H83.0753V18.2523H86.1476V14.9336Z" fill="#F09F0C"/>
<path d="M38.5271 94.5825H35.4548V97.9012H38.5271V94.5825Z" fill="#F09F0C"/>
<path d="M44.6717 94.5825H41.5994V97.9012H44.6717V94.5825Z" fill="#F09F0C"/>
<path d="M50.8163 94.5825H47.744V97.9012H50.8163V94.5825Z" fill="#F09F0C"/>
</svg>
